<svg width="48" height="48" viewBox="0 0 48 48" fill="none" xmlns="http://www.w3.org/2000/svg">
<path d="M35.1059 41.826C35.0487 41.826 34.9923 41.8237 34.9359 41.8185C28.7404 41.2882 21.4631 36.028 16.7177 31.2819C11.9723 26.5358 6.71132 19.2593 6.18107 13.0638C5.93717 10.2227 11.935 6.68879 12.1906 6.53939C12.5221 6.34476 12.8917 6.22381 13.2741 6.18475C13.6565 6.1457 14.0429 6.18945 14.4069 6.31304C16.3269 6.92166 18.2594 9.47639 20.4882 14.3514C20.9935 15.3693 21.1567 16.5231 20.9536 17.6412C20.7505 18.7593 20.1919 19.782 19.361 20.5572C20.4442 22.1393 21.6666 23.6215 23.0135 24.9862C24.3777 26.3334 25.8597 27.556 27.4417 28.6394C28.2171 27.8086 29.2399 27.2501 30.3581 27.0469C31.4762 26.8437 32.6301 27.0067 33.6482 27.5115C38.5232 29.7403 41.078 31.6732 41.6866 33.5928C41.8098 33.9569 41.8534 34.3432 41.8144 34.7255C41.7753 35.1079 41.6546 35.4775 41.4603 35.8091C41.3138 36.0596 37.9162 41.826 35.1059 41.826ZM13.5317 8.42316C13.4583 8.42336 13.3865 8.44415 13.3244 8.48316C11.2025 9.72066 8.44427 12.0757 8.42297 12.8792C8.90124 18.4639 13.8437 25.2264 18.3085 29.6912C22.7733 34.156 29.536 39.0985 35.1278 39.5774C35.924 39.5554 38.2787 36.7972 39.5165 34.6753C39.5522 34.6149 39.5731 34.5469 39.5774 34.4769C39.5817 34.4069 39.5694 34.3369 39.5414 34.2725C39.3641 33.7129 38.3432 32.1316 32.7123 29.5579C32.0056 29.2132 31.1961 29.1432 30.4406 29.3614C29.6852 29.5797 29.0378 30.0708 28.6239 30.7393C28.4647 30.9864 28.2158 31.1619 27.9296 31.2288C27.6435 31.2958 27.3425 31.2489 27.0902 31.0982C25.0435 29.7999 23.1433 28.284 21.4228 26.5769C19.7157 24.8564 18.1998 22.9562 16.9015 20.9095C16.7479 20.6566 16.7002 20.3535 16.7686 20.0657C16.837 19.7779 17.0161 19.5286 17.267 19.372C17.934 18.9576 18.4235 18.3105 18.6406 17.5558C18.8577 16.8012 18.7869 15.9928 18.4419 15.2874C15.8682 9.65654 14.2869 8.63556 13.7273 8.45826C13.6643 8.43643 13.5983 8.42459 13.5317 8.42316Z" fill="#424242"/>
</svg>
